<svg xmlns="http://www.w3.org/2000/svg" fill="#008000" width="800px" height="800px" viewBox="0 0 64 64" id="muslim"><path d="M32,46a13,13,0,0,1-.13-26h0a1,1,0,0,1,.46,1.89A8,8,0,1,0,43.11,32.66a1,1,0,0,1,1.13-.51,1,1,0,0,1,.76,1A13.05,13.05,0,0,1,32,46ZM28.26,22.66A11,11,0,1,0,42.34,36.74,10,10,0,0,1,28.26,22.66Z"></path><path d="M38,32a1,1,0,0,1-1-1,3,3,0,0,0-3-3,1,1,0,0,1,0-2,3,3,0,0,0,3-3,1,1,0,0,1,2,0,3,3,0,0,0,3,3,1,1,0,0,1,0,2,3,3,0,0,0-3,3A1,1,0,0,1,38,32Zm-1-5a5.26,5.26,0,0,1,1,1,5.26,5.26,0,0,1,1-1,5.26,5.26,0,0,1-1-1A5.26,5.26,0,0,1,37,27Z"></path><path d="M32,58.46a1,1,0,0,1-.71-.3L24.13,51H14a1,1,0,0,1-1-1V39.87L5.84,32.71a1,1,0,0,1,0-1.42L13,24.13V14a1,1,0,0,1,1-1H24.13l7.16-7.16a1,1,0,0,1,1.42,0L39.87,13H50a1,1,0,0,1,1,1V24.13l7.16,7.16a1,1,0,0,1,0,1.42L51,39.87V50a1,1,0,0,1-1,1H39.87l-7.16,7.16A1,1,0,0,1,32,58.46ZM15,49h9.54a1,1,0,0,1,.71.29L32,56l6.75-6.75a1,1,0,0,1,.71-.29H49V39.46a1,1,0,0,1,.29-.71L56,32l-6.75-6.75a1,1,0,0,1-.29-.71V15H39.46a1,1,0,0,1-.71-.29L32,8l-6.75,6.75a1,1,0,0,1-.71.29H15v9.54a1,1,0,0,1-.29.71L8,32l6.75,6.75a1,1,0,0,1,.29.71Z"></path></svg>