<svg width="19" height="17" viewBox="0 0 19 17" fill="none" xmlns="http://www.w3.org/2000/svg">
<path d="M18.2536 5.814C17.7767 4.68288 17.0854 3.65523 16.2179 2.788C15.3525 1.91868 14.327 1.22588 13.1982 0.748C12.0256 0.25075 10.7829 0 9.5 0C8.21708 0 6.97444 0.25075 5.80179 0.748C4.67304 1.22588 3.64755 1.91868 2.78214 2.788C1.91465 3.65523 1.2233 4.68288 0.746428 5.814C0.250223 6.98913 0 8.23438 0 9.52C0 12.3399 1.23627 14.9961 3.39074 16.8109L3.42679 16.8406C3.54978 16.9426 3.70458 17 3.86362 17H15.1385C15.2975 17 15.4523 16.9426 15.5753 16.8406L15.6114 16.8109C17.7637 14.9961 19 12.3399 19 9.52C19 8.23438 18.7477 6.98913 18.2536 5.814ZM8.86384 2.55C8.86384 2.4565 8.94018 2.38 9.03348 2.38H9.96652C10.0598 2.38 10.1362 2.4565 10.1362 2.55V4.25C10.1362 4.3435 10.0598 4.42 9.96652 4.42H9.03348C8.94018 4.42 8.86384 4.3435 8.86384 4.25V2.55ZM4.3683 9.9875C4.3683 10.081 4.29196 10.1575 4.19866 10.1575H2.50223C2.40893 10.1575 2.33259 10.081 2.33259 9.9875V9.0525C2.33259 8.959 2.40893 8.8825 2.50223 8.8825H4.19866C4.29196 8.8825 4.3683 8.959 4.3683 9.0525V9.9875ZM6.29163 5.64188L5.63214 6.30275C5.60026 6.33439 5.5572 6.35214 5.51233 6.35214C5.46746 6.35214 5.42441 6.33439 5.39252 6.30275L4.1923 5.1C4.16073 5.06805 4.14302 5.0249 4.14302 4.97994C4.14302 4.93497 4.16073 4.89183 4.1923 4.85988L4.85179 4.199C4.91752 4.13313 5.02567 4.13313 5.09141 4.199L6.29163 5.40175C6.35737 5.46763 6.35737 5.576 6.29163 5.64188ZM12.4645 7.41838L10.6727 9.214C10.7787 9.61137 10.6769 10.0513 10.3652 10.3636C10.255 10.4743 10.1241 10.562 9.97999 10.6219C9.8359 10.6818 9.68144 10.7127 9.52545 10.7127C9.36945 10.7127 9.21499 10.6818 9.0709 10.6219C8.92681 10.562 8.79591 10.4743 8.68571 10.3636C8.5753 10.2532 8.48771 10.122 8.42795 9.97763C8.36818 9.83324 8.33742 9.67845 8.33742 9.52212C8.33742 9.3658 8.36818 9.21101 8.42795 9.06662C8.48771 8.92222 8.5753 8.79106 8.68571 8.68062C8.83296 8.53263 9.01657 8.4262 9.21801 8.3721C9.41944 8.318 9.63156 8.31813 9.83292 8.3725L11.6248 6.57688C11.6905 6.511 11.7987 6.511 11.8644 6.57688L12.4645 7.17825C12.5302 7.24412 12.5302 7.35038 12.4645 7.41838ZM13.3763 6.30488L12.7169 5.644C12.6853 5.61205 12.6676 5.5689 12.6676 5.52394C12.6676 5.47897 12.6853 5.43583 12.7169 5.40387L13.9171 4.20113C13.9828 4.13525 14.091 4.13525 14.1567 4.20113L14.8162 4.862C14.8819 4.92787 14.8819 5.03625 14.8162 5.10213L13.616 6.30488C13.5841 6.33651 13.541 6.35426 13.4961 6.35426C13.4513 6.35426 13.4082 6.33651 13.3763 6.30488ZM16.5826 9.9875C16.5826 10.081 16.5062 10.1575 16.4129 10.1575H14.7165C14.6232 10.1575 14.5469 10.081 14.5469 9.9875V9.0525C14.5469 8.959 14.6232 8.8825 14.7165 8.8825H16.4129C16.5062 8.8825 16.5826 8.959 16.5826 9.0525V9.9875Z" fill="#6C6C6D"/>
</svg>
