<svg width="12" height="12" viewBox="0 0 12 12" fill="none" xmlns="http://www.w3.org/2000/svg">
<path d="M6.474 3.40783L8.592 5.52483L6.474 3.40783ZM7.836 1.54283L2.109 7.26983C1.81309 7.56533 1.61128 7.94181 1.529 8.35183L1 10.9998L3.648 10.4698C4.058 10.3878 4.434 10.1868 4.73 9.89083L10.457 4.16383C10.6291 3.99173 10.7656 3.78742 10.8588 3.56256C10.9519 3.33771 10.9998 3.09671 10.9998 2.85333C10.9998 2.60994 10.9519 2.36895 10.8588 2.14409C10.7656 1.91923 10.6291 1.71492 10.457 1.54283C10.2849 1.37073 10.0806 1.23421 9.85574 1.14108C9.63088 1.04794 9.38988 1 9.1465 1C8.90312 1 8.66212 1.04794 8.43726 1.14108C8.21241 1.23421 8.0081 1.37073 7.836 1.54283V1.54283Z" stroke="#6C6C6D" stroke-width="2" stroke-linecap="round" stroke-linejoin="round"/>
</svg>
